HIERARCHY
ROOT Hips
{
  OFFSET 57.8838 95.319 338.509
  CHANNELS 6 Xposition Yposition Zposition Zrotation Xrotation Yrotation
  JOINT LeftUpLeg
  {
    OFFSET 8.64259 1.95398 -2.38835
    CHANNELS 3 Zrotation Xrotation Yrotation
    JOINT LeftLeg
    {
      OFFSET 43.7702 0 0
      CHANNELS 3 Zrotation Xrotation Yrotation
      JOINT LeftFoot
      {
        OFFSET 40.6238 0 0
        CHANNELS 3 Zrotation Xrotation Yrotation
        JOINT LeftToeBase
        {
          OFFSET 12.7242 0 0
          CHANNELS 3 Zrotation Xrotation Yrotation
          End Site
          {
            OFFSET 0 0 0
          }
        }
      }
    }
  }
  JOINT RightUpLeg
  {
    OFFSET -8.2249 1.95398 -2.59336
    CHANNELS 3 Zrotation Xrotation Yrotation
    JOINT RightLeg
    {
      OFFSET 43.5653 0 0
      CHANNELS 3 Zrotation Xrotation Yrotation
      JOINT RightFoot
      {
        OFFSET 40.6238 0 0
        CHANNELS 3 Zrotation Xrotation Yrotation
        JOINT RightToeBase
        {
          OFFSET 12.7242 0 0
          CHANNELS 3 Zrotation Xrotation Yrotation
          End Site
          {
            OFFSET 0 0 0
          }
        }
      }
    }
  }
  JOINT Spine
  {
    OFFSET 0.165834 0.87714 6.61349
    CHANNELS 3 Zrotation Xrotation Yrotation
    JOINT Spine1
    {
      OFFSET 7.38963 1.71661e-005 0
      CHANNELS 3 Zrotation Xrotation Yrotation
      JOINT Spine2
      {
        OFFSET 11.9445 1.14441e-005 0
        CHANNELS 3 Zrotation Xrotation Yrotation
        JOINT Spine3
        {
          OFFSET 14.7254 4.19617e-005 0
          CHANNELS 3 Zrotation Xrotation Yrotation
          JOINT Spine4
          {
            OFFSET 10.9679 0 0
            CHANNELS 3 Zrotation Xrotation Yrotation
            JOINT RightShoulder
            {
              OFFSET 2.46616 -1.6653 3.69651
              CHANNELS 3 Zrotation Xrotation Yrotation
              JOINT RightArm
              {
                OFFSET 13.0012 0 0
                CHANNELS 3 Zrotation Xrotation Yrotation
                JOINT RightForeArm
                {
                  OFFSET 28.7848 1.62311e-005 0
                  CHANNELS 3 Zrotation Xrotation Yrotation
                  JOINT RightHand
                  {
                    OFFSET 26.5688 1.62095e-005 0
                    CHANNELS 3 Zrotation Xrotation Yrotation
                    End Site
                    {
                      OFFSET 0 0 0
                    }
                  }
                }
              }
            }
            JOINT LeftShoulder
            {
              OFFSET 2.38034 -1.29275 -3.7523
              CHANNELS 3 Zrotation Xrotation Yrotation
              JOINT LeftArm
              {
                OFFSET 16.3182 6.07031e-005 0
                CHANNELS 3 Zrotation Xrotation Yrotation
                JOINT LeftForeArm
                {
                  OFFSET 27.0901 0 0
                  CHANNELS 3 Zrotation Xrotation Yrotation
                  JOINT LeftHand
                  {
                    OFFSET 24.5451 1.51738e-005 0
                    CHANNELS 3 Zrotation Xrotation Yrotation
                    End Site
                    {
                      OFFSET 0 0 0
                    }
                  }
                }
              }
            }
            JOINT Neck
            {
              OFFSET 5.0226 -0.0266342 0
              CHANNELS 3 Zrotation Xrotation Yrotation
              JOINT Head
              {
                OFFSET 6.69364 2.86102e-005 0
                CHANNELS 3 Zrotation Xrotation Yrotation
                End Site
                {
                  OFFSET 0 0 0
                }
              }
            }
          }
        }
      }
    }
  }
}
MOTION
Frames:	7
Frame Time:	0.0416667
-270.104 90.4701 312.162 -85.0468 -53.6406 -79.4402 -177.153 26.0124 88.8475 -26.7368 11.224 -3.8627 64.1959 3.15911 6.49187 20.7475 -3.1723 -0.833813 173.481 2.75779 98.5419 -38.1402 -6.03258 1.95892 57.0818 11.4239 26.5377 32.9022 -6.379 -12.2821 -4.51505 6.25148 -87.5752 14.5859 -7.74487 5.97421 2.92273 -7.47494 6.30935 -19.7552 -9.17944 3.36017 0.257427 -9.17947 3.36017 42.0944 -59.2119 -159.679 33.9504 -20.6045 -12.408 5.45352 -18.6018 -5.64087 -9.51418 -0.320082 -1.31864 -81.1798 4.96918 82.9494 -51.0679 -49.1538 38.7085 23.4365 35.8089 -19.269 -7.25526 0.0606267 -7.9085 -33.0782 31.9611 -45.2807 13.6031 32.68 49.2026 
-265.132 91.0131 306.66 -85.0473 -53.2073 -79.0911 -178.776 27.3166 89.7438 -19.5318 8.08641 -3.04957 59.9841 -2.9521 -1.5751 24.9641 -2.02646 5.10293 176.822 -0.096636 102.639 -27.4372 -2.86489 0.941599 66.5435 -1.16681 16.5964 34.2704 -7.44341 -1.67766 -4.18891 7.19944 -88.0625 12.6408 -7.39859 4.72063 0.981244 -7.1839 5.04226 -21.7031 -8.47321 2.26775 -1.69045 -8.47323 2.26775 52.9929 -55.7194 -149.15 30.8265 -21.5924 -22.7523 1.56407 -15.4271 -13.4826 -11.1437 -0.191833 -3.26214 -78.0666 5.83114 94.396 -65.8982 -44.5117 21.3485 24.5972 41.4192 -18.7161 -7.36511 0.0665665 -7.92649 -17.4904 25.574 -52.2719 5.81972 28.8664 53.2661 
-259.959 90.8987 300.966 -87.8404 -54.668 -80.0545 179.756 27.7452 92.118 -18.1996 14.3309 -1.20089 55.425 -6.50193 -6.78222 37.8042 4.08251 12.3711 177.985 -0.543779 105.322 -22.0052 -0.75108 0.794508 70.494 -7.04056 10.396 31.9965 -4.25293 0.62402 -3.88089 8.36245 -88.6785 10.2578 -7.12891 3.23161 -1.39829 -6.97984 3.54327 -24.0867 -7.76879 0.928328 -4.07403 -7.76878 0.928321 62.1809 -53.1913 -139.101 26.5622 -21.9719 -30.4605 -2.55854 -13.7914 -21.6489 -11.701 -0.0944197 -4.40551 -74.7701 -1.50029 107.249 -71.3223 -34.8269 3.86189 25.4836 51.1097 -18.9135 -9.80399 0.247816 -9.53881 -1.07408 15.6717 -56.7367 -3.8467 22.4715 55.3004 
-254.912 90.8416 296.253 -93.6591 -56.9493 -86.0937 177.715 26.3275 91.1798 -31.4009 9.52984 2.00019 59.2375 1.77503 -0.894298 40.8804 5.78902 13.6462 177.131 0.453505 104.17 -22.8868 -0.514574 0.346961 73.2459 -7.92698 6.72356 28.9374 -0.248478 1.13343 -3.67197 9.27879 -88.9836 8.39205 -6.87985 2.43011 -3.26347 -6.76626 2.73166 -25.9449 -7.29057 0.2396 -5.93222 -7.29056 0.239604 69.3479 -51.2012 -130.577 25.1618 -20.5547 -33.2866 -3.58871 -13.4619 -23.7495 -12.6772 -0.116518 -4.2471 -71.2087 -14.083 113.779 -66.774 -25.712 -11.2357 22.0889 55.9577 -15.766 -8.85716 0.249027 -10.3577 14.7937 4.742 -57.1486 -14.5839 14.7823 54.508 
-250.023 91.3466 292.12 -100.226 -57.6513 -94.2834 179.351 21.7138 90.055 -49.6399 6.89053 3.75953 58.1997 3.09792 2.99902 46.1797 8.63595 13.0996 174.671 3.97812 99.8092 -29.4884 -0.369093 0.23346 75.5806 -4.04198 9.73914 26.1131 3.65795 -0.9544 -3.59917 9.53476 -88.9238 7.8785 -6.71529 2.49072 -3.77799 -6.59916 2.78486 -26.4521 -7.15193 0.347624 -6.43948 -7.15193 0.34763 72.5091 -50.801 -126.364 25.4676 -20.3912 -31.0657 0.219831 -12.8478 -17.1548 -14.0691 -0.346995 -2.35966 -69.8224 -18.7322 115.631 -66.0293 -21.5636 -18.8109 20.7819 57.1763 -14.1752 -5.93412 0.0441923 -8.74389 23.4216 2.49481 -44.9669 -22.2681 11.3806 39.6995 
-244.964 91.5105 288.028 -105.283 -57.8234 -101.756 -179.231 12.8077 89.1292 -59.6698 5.13498 5.10357 57.2309 2.33616 3.11387 44.2147 7.70446 14.374 173.281 7.76533 95.5366 -33.894 -3.21256 0.141675 74.5604 -3.00101 8.31077 24.8129 5.58427 -2.1019 -3.62545 9.45537 -88.7147 8.04533 -6.67391 2.91564 -3.61239 -6.53917 3.20741 -26.2823 -7.24017 0.765687 -6.26962 -7.2402 0.765675 73.9173 -51.6905 -123.944 26.7761 -18.2719 -26.803 4.296 -15.0718 -7.53541 -11.3849 -0.45924 -0.467023 -70.23 -20.1895 114.285 -64.2769 -17.713 -21.024 20.0931 53.2347 -16.8219 -3.84948 -0.0266886 -9.2197 23.5953 3.98918 -38.6585 -22.378 11.7047 32.891 
-239.895 91.5359 284.186 -106.389 -60.4111 -103.214 -179.488 3.59717 92.677 -58.0773 9.32723 6.68976 56.8558 1.41455 0.931246 42.7577 6.79363 13.3125 172.771 11.8834 93.2594 -33.7983 -5.04427 0.963076 71.5267 -0.509043 6.81036 24.0359 6.56145 -1.48516 -3.67306 9.21207 -88.982 8.52637 -6.87945 2.44613 -3.1292 -6.76514 2.74764 -25.8105 -7.29501 0.255002 -5.79786 -7.29499 0.255001 75.2279 -53.1931 -121.416 28.5296 -10.8372 -20.1552 5.48208 -18.3612 -2.76268 -8.50096 -0.476446 1.44246 -70.9004 -24.0462 111.802 -60.5423 -14.1292 -23.8638 21.2252 52.0798 -21.0907 -3.34601 -0.0378125 -10.6956 24.4945 2.56263 -38.7963 -23.5653 10.2232 33.7106 
